<mxfile host="app.diagrams.net" agent="Mozilla/5.0 (Windows NT 10.0; Win64; x64) AppleWebKit/537.36 (KHTML, like Gecko) Chrome/131.0.0.0 Safari/537.36" version="24.9.0">
  <diagram name="Page-1" id="FE9Ugcn_S4GGpWRnXWFT">
    <mxGraphModel dx="989" dy="537" grid="1" gridSize="10" guides="1" tooltips="1" connect="1" arrows="1" fold="1" page="1" pageScale="1" pageWidth="827" pageHeight="1169" math="0" shadow="0">
      <root>
        <mxCell id="0" />
        <mxCell id="1" parent="0" />
        <mxCell id="TIkcXbPKKL6H0c5Kh5_0-2" value="flw f6, 0(x9)" style="rounded=0;whiteSpace=wrap;html=1;fontFamily=Lucida Console;align=left;" vertex="1" parent="1">
          <mxGeometry x="70" y="65" width="180" height="20" as="geometry" />
        </mxCell>
        <mxCell id="TIkcXbPKKL6H0c5Kh5_0-3" value="..." style="rounded=0;whiteSpace=wrap;html=1;fontFamily=Lucida Console;align=left;" vertex="1" parent="1">
          <mxGeometry x="70" y="45" width="180" height="20" as="geometry" />
        </mxCell>
        <mxCell id="TIkcXbPKKL6H0c5Kh5_0-4" value="fdiv.d f4, f0, f2" style="rounded=0;whiteSpace=wrap;html=1;fontFamily=Lucida Console;align=left;" vertex="1" parent="1">
          <mxGeometry x="70" y="85" width="180" height="20" as="geometry" />
        </mxCell>
        <mxCell id="TIkcXbPKKL6H0c5Kh5_0-5" value="flw f2, 0(x8)" style="rounded=0;whiteSpace=wrap;html=1;fontFamily=Lucida Console;align=left;" vertex="1" parent="1">
          <mxGeometry x="70" y="105" width="180" height="20" as="geometry" />
        </mxCell>
        <mxCell id="TIkcXbPKKL6H0c5Kh5_0-6" value="flw f0, 0(x7)" style="rounded=0;whiteSpace=wrap;html=1;fontFamily=Lucida Console;align=left;" vertex="1" parent="1">
          <mxGeometry x="70" y="125" width="180" height="20" as="geometry" />
        </mxCell>
        <mxCell id="TIkcXbPKKL6H0c5Kh5_0-31" value="" style="edgeStyle=orthogonalEdgeStyle;rounded=0;orthogonalLoop=1;jettySize=auto;html=1;" edge="1" parent="1" source="TIkcXbPKKL6H0c5Kh5_0-7" target="TIkcXbPKKL6H0c5Kh5_0-30">
          <mxGeometry relative="1" as="geometry" />
        </mxCell>
        <mxCell id="TIkcXbPKKL6H0c5Kh5_0-7" value="addi x11, x0, 100" style="rounded=0;whiteSpace=wrap;html=1;fontFamily=Lucida Console;align=left;" vertex="1" parent="1">
          <mxGeometry x="70" y="145" width="180" height="20" as="geometry" />
        </mxCell>
        <mxCell id="TIkcXbPKKL6H0c5Kh5_0-8" value="Cola de Instrucciones&lt;div&gt;(FP)&lt;/div&gt;" style="text;html=1;align=center;verticalAlign=middle;whiteSpace=wrap;rounded=0;fontStyle=1" vertex="1" parent="1">
          <mxGeometry x="90" y="10" width="140" height="30" as="geometry" />
        </mxCell>
        <mxCell id="TIkcXbPKKL6H0c5Kh5_0-9" value="" style="rounded=0;whiteSpace=wrap;html=1;fillColor=#e1d5e7;strokeColor=#9673a6;" vertex="1" parent="1">
          <mxGeometry x="240" y="350" width="120" height="20" as="geometry" />
        </mxCell>
        <mxCell id="TIkcXbPKKL6H0c5Kh5_0-10" value="" style="rounded=0;whiteSpace=wrap;html=1;fillColor=#e1d5e7;strokeColor=#9673a6;" vertex="1" parent="1">
          <mxGeometry x="240" y="370" width="120" height="20" as="geometry" />
        </mxCell>
        <mxCell id="TIkcXbPKKL6H0c5Kh5_0-96" style="edgeStyle=orthogonalEdgeStyle;rounded=0;orthogonalLoop=1;jettySize=auto;html=1;entryX=0;entryY=0.5;entryDx=0;entryDy=0;" edge="1" parent="1" source="TIkcXbPKKL6H0c5Kh5_0-11" target="TIkcXbPKKL6H0c5Kh5_0-92">
          <mxGeometry relative="1" as="geometry" />
        </mxCell>
        <mxCell id="TIkcXbPKKL6H0c5Kh5_0-11" value="" style="rounded=0;whiteSpace=wrap;html=1;fillColor=#e1d5e7;strokeColor=#9673a6;" vertex="1" parent="1">
          <mxGeometry x="240" y="390" width="120" height="20" as="geometry" />
        </mxCell>
        <mxCell id="TIkcXbPKKL6H0c5Kh5_0-12" value="" style="rounded=0;whiteSpace=wrap;html=1;fillColor=#e1d5e7;strokeColor=#9673a6;" vertex="1" parent="1">
          <mxGeometry x="240" y="410" width="120" height="20" as="geometry" />
        </mxCell>
        <mxCell id="TIkcXbPKKL6H0c5Kh5_0-13" value="" style="rounded=0;whiteSpace=wrap;html=1;fillColor=#e1d5e7;strokeColor=#9673a6;" vertex="1" parent="1">
          <mxGeometry x="240" y="430" width="120" height="20" as="geometry" />
        </mxCell>
        <mxCell id="TIkcXbPKKL6H0c5Kh5_0-14" value="Buffer de Reordenamiento&lt;div&gt;(ROB)&lt;/div&gt;" style="text;html=1;align=left;verticalAlign=middle;whiteSpace=wrap;rounded=0;fontStyle=1;fillColor=none;strokeColor=none;fontColor=#A680B8;" vertex="1" parent="1">
          <mxGeometry x="366" y="350" width="160" height="30" as="geometry" />
        </mxCell>
        <mxCell id="TIkcXbPKKL6H0c5Kh5_0-32" style="edgeStyle=orthogonalEdgeStyle;rounded=0;orthogonalLoop=1;jettySize=auto;html=1;fillColor=#f8cecc;strokeColor=#b85450;" edge="1" parent="1" source="TIkcXbPKKL6H0c5Kh5_0-15">
          <mxGeometry relative="1" as="geometry">
            <mxPoint x="235" y="670" as="targetPoint" />
          </mxGeometry>
        </mxCell>
        <mxCell id="TIkcXbPKKL6H0c5Kh5_0-15" value="Unidad de Memoria" style="rounded=0;whiteSpace=wrap;html=1;fillColor=#dae8fc;strokeColor=#6c8ebf;" vertex="1" parent="1">
          <mxGeometry x="140" y="600" width="190" height="30" as="geometry" />
        </mxCell>
        <mxCell id="TIkcXbPKKL6H0c5Kh5_0-17" value="" style="rounded=0;whiteSpace=wrap;html=1;fillColor=#fff2cc;strokeColor=#d6b656;" vertex="1" parent="1">
          <mxGeometry x="100" y="410" width="120" height="20" as="geometry" />
        </mxCell>
        <mxCell id="TIkcXbPKKL6H0c5Kh5_0-18" value="" style="rounded=0;whiteSpace=wrap;html=1;fillColor=#fff2cc;strokeColor=#d6b656;" vertex="1" parent="1">
          <mxGeometry x="100" y="430" width="120" height="20" as="geometry" />
        </mxCell>
        <mxCell id="TIkcXbPKKL6H0c5Kh5_0-19" value="Load Buffers" style="text;html=1;align=right;verticalAlign=middle;whiteSpace=wrap;rounded=0;fontStyle=1;fillColor=none;strokeColor=none;fontColor=#FFD966;" vertex="1" parent="1">
          <mxGeometry x="10" y="400" width="80" height="10" as="geometry" />
        </mxCell>
        <mxCell id="TIkcXbPKKL6H0c5Kh5_0-20" value="&lt;i&gt;Load 1&lt;/i&gt;" style="text;html=1;align=right;verticalAlign=middle;whiteSpace=wrap;rounded=0;fontColor=#FFD966;" vertex="1" parent="1">
          <mxGeometry x="30" y="415" width="60" height="10" as="geometry" />
        </mxCell>
        <mxCell id="TIkcXbPKKL6H0c5Kh5_0-22" value="&lt;i&gt;Load 2&lt;/i&gt;" style="text;html=1;align=right;verticalAlign=middle;whiteSpace=wrap;rounded=0;fontColor=#FFD966;" vertex="1" parent="1">
          <mxGeometry x="30" y="435" width="60" height="10" as="geometry" />
        </mxCell>
        <mxCell id="TIkcXbPKKL6H0c5Kh5_0-23" style="edgeStyle=orthogonalEdgeStyle;rounded=0;orthogonalLoop=1;jettySize=auto;html=1;entryX=0.105;entryY=0;entryDx=0;entryDy=0;entryPerimeter=0;" edge="1" parent="1" source="TIkcXbPKKL6H0c5Kh5_0-18" target="TIkcXbPKKL6H0c5Kh5_0-15">
          <mxGeometry relative="1" as="geometry" />
        </mxCell>
        <mxCell id="TIkcXbPKKL6H0c5Kh5_0-27" value="" style="shape=link;html=1;rounded=0;fillColor=#f8cecc;strokeColor=#b85450;" edge="1" parent="1">
          <mxGeometry width="100" relative="1" as="geometry">
            <mxPoint x="10" y="670" as="sourcePoint" />
            <mxPoint x="1650" y="668" as="targetPoint" />
          </mxGeometry>
        </mxCell>
        <mxCell id="TIkcXbPKKL6H0c5Kh5_0-28" value="Common Data Bus&lt;div&gt;(CDB)&lt;/div&gt;" style="text;html=1;align=center;verticalAlign=middle;whiteSpace=wrap;rounded=0;fillColor=none;strokeColor=none;fontStyle=1;fontColor=#EA6B66;" vertex="1" parent="1">
          <mxGeometry x="10" y="630" width="110" height="30" as="geometry" />
        </mxCell>
        <mxCell id="TIkcXbPKKL6H0c5Kh5_0-29" style="edgeStyle=orthogonalEdgeStyle;rounded=0;orthogonalLoop=1;jettySize=auto;html=1;entryX=0.846;entryY=0.008;entryDx=0;entryDy=0;entryPerimeter=0;" edge="1" parent="1" source="TIkcXbPKKL6H0c5Kh5_0-13" target="TIkcXbPKKL6H0c5Kh5_0-15">
          <mxGeometry relative="1" as="geometry" />
        </mxCell>
        <mxCell id="TIkcXbPKKL6H0c5Kh5_0-37" style="edgeStyle=orthogonalEdgeStyle;rounded=0;orthogonalLoop=1;jettySize=auto;html=1;entryX=0.5;entryY=0;entryDx=0;entryDy=0;" edge="1" parent="1" source="TIkcXbPKKL6H0c5Kh5_0-30" target="TIkcXbPKKL6H0c5Kh5_0-17">
          <mxGeometry relative="1" as="geometry" />
        </mxCell>
        <mxCell id="TIkcXbPKKL6H0c5Kh5_0-38" style="edgeStyle=orthogonalEdgeStyle;rounded=0;orthogonalLoop=1;jettySize=auto;html=1;" edge="1" parent="1" source="TIkcXbPKKL6H0c5Kh5_0-30" target="TIkcXbPKKL6H0c5Kh5_0-9">
          <mxGeometry relative="1" as="geometry">
            <Array as="points">
              <mxPoint x="160" y="285" />
              <mxPoint x="300" y="285" />
            </Array>
          </mxGeometry>
        </mxCell>
        <mxCell id="TIkcXbPKKL6H0c5Kh5_0-30" value="Unidad de Direcciones" style="rounded=0;whiteSpace=wrap;html=1;fillColor=#dae8fc;strokeColor=#6c8ebf;" vertex="1" parent="1">
          <mxGeometry x="100" y="205" width="120" height="40" as="geometry" />
        </mxCell>
        <mxCell id="TIkcXbPKKL6H0c5Kh5_0-44" style="edgeStyle=orthogonalEdgeStyle;rounded=0;orthogonalLoop=1;jettySize=auto;html=1;fillColor=#f8cecc;strokeColor=#b85450;" edge="1" parent="1" source="TIkcXbPKKL6H0c5Kh5_0-33">
          <mxGeometry relative="1" as="geometry">
            <mxPoint x="521" y="670" as="targetPoint" />
          </mxGeometry>
        </mxCell>
        <mxCell id="TIkcXbPKKL6H0c5Kh5_0-33" value="Unidad&amp;nbsp;&lt;div&gt;Suma de Coma Flotante&lt;/div&gt;" style="rounded=0;whiteSpace=wrap;html=1;fillColor=#dae8fc;strokeColor=#6c8ebf;" vertex="1" parent="1">
          <mxGeometry x="446" y="600" width="150" height="40" as="geometry" />
        </mxCell>
        <mxCell id="TIkcXbPKKL6H0c5Kh5_0-35" value="" style="rounded=0;whiteSpace=wrap;html=1;fillColor=#d5e8d4;strokeColor=#82b366;" vertex="1" parent="1">
          <mxGeometry x="416" y="540" width="210" height="20" as="geometry" />
        </mxCell>
        <mxCell id="TIkcXbPKKL6H0c5Kh5_0-39" value="" style="rounded=0;whiteSpace=wrap;html=1;fillColor=#d5e8d4;strokeColor=#82b366;" vertex="1" parent="1">
          <mxGeometry x="436" y="540" width="90" height="20" as="geometry" />
        </mxCell>
        <mxCell id="TIkcXbPKKL6H0c5Kh5_0-40" value="" style="rounded=0;whiteSpace=wrap;html=1;fillColor=#d5e8d4;strokeColor=#82b366;" vertex="1" parent="1">
          <mxGeometry x="526" y="540" width="100" height="20" as="geometry" />
        </mxCell>
        <mxCell id="TIkcXbPKKL6H0c5Kh5_0-41" style="edgeStyle=orthogonalEdgeStyle;rounded=0;orthogonalLoop=1;jettySize=auto;html=1;entryX=0.229;entryY=-0.056;entryDx=0;entryDy=0;entryPerimeter=0;" edge="1" parent="1" source="TIkcXbPKKL6H0c5Kh5_0-39" target="TIkcXbPKKL6H0c5Kh5_0-33">
          <mxGeometry relative="1" as="geometry" />
        </mxCell>
        <mxCell id="TIkcXbPKKL6H0c5Kh5_0-43" style="edgeStyle=orthogonalEdgeStyle;rounded=0;orthogonalLoop=1;jettySize=auto;html=1;entryX=0.867;entryY=-0.011;entryDx=0;entryDy=0;entryPerimeter=0;" edge="1" parent="1" source="TIkcXbPKKL6H0c5Kh5_0-40" target="TIkcXbPKKL6H0c5Kh5_0-33">
          <mxGeometry relative="1" as="geometry" />
        </mxCell>
        <mxCell id="TIkcXbPKKL6H0c5Kh5_0-45" value="&lt;i&gt;Sum 1&lt;/i&gt;" style="text;html=1;align=right;verticalAlign=middle;whiteSpace=wrap;rounded=0;fontColor=#97D077;" vertex="1" parent="1">
          <mxGeometry x="350" y="545" width="60" height="10" as="geometry" />
        </mxCell>
        <mxCell id="TIkcXbPKKL6H0c5Kh5_0-46" value="&lt;b&gt;&lt;font color=&quot;#97d077&quot;&gt;Estaciones de Reserva&lt;/font&gt;&lt;/b&gt;&lt;div&gt;&lt;b&gt;&lt;font color=&quot;#97d077&quot;&gt;(ER)&lt;/font&gt;&lt;/b&gt;&lt;/div&gt;" style="text;html=1;align=left;verticalAlign=top;whiteSpace=wrap;rounded=0;" vertex="1" parent="1">
          <mxGeometry x="1506" y="520" width="140" height="40" as="geometry" />
        </mxCell>
        <mxCell id="TIkcXbPKKL6H0c5Kh5_0-47" style="edgeStyle=orthogonalEdgeStyle;rounded=0;orthogonalLoop=1;jettySize=auto;html=1;fillColor=#f8cecc;strokeColor=#b85450;" edge="1" parent="1" source="TIkcXbPKKL6H0c5Kh5_0-48">
          <mxGeometry relative="1" as="geometry">
            <mxPoint x="807" y="670" as="targetPoint" />
          </mxGeometry>
        </mxCell>
        <mxCell id="TIkcXbPKKL6H0c5Kh5_0-48" value="Unidad&amp;nbsp;&lt;span style=&quot;background-color: initial;&quot;&gt;Multiplicación&lt;/span&gt;&lt;div&gt;&lt;span style=&quot;background-color: initial;&quot;&gt;de Coma Flotante&lt;/span&gt;&lt;/div&gt;" style="rounded=0;whiteSpace=wrap;html=1;fillColor=#dae8fc;strokeColor=#6c8ebf;" vertex="1" parent="1">
          <mxGeometry x="732" y="600" width="150" height="40" as="geometry" />
        </mxCell>
        <mxCell id="TIkcXbPKKL6H0c5Kh5_0-49" value="" style="rounded=0;whiteSpace=wrap;html=1;fillColor=#d5e8d4;strokeColor=#82b366;" vertex="1" parent="1">
          <mxGeometry x="702" y="540" width="210" height="20" as="geometry" />
        </mxCell>
        <mxCell id="TIkcXbPKKL6H0c5Kh5_0-50" value="" style="rounded=0;whiteSpace=wrap;html=1;fillColor=#d5e8d4;strokeColor=#82b366;" vertex="1" parent="1">
          <mxGeometry x="722" y="540" width="90" height="20" as="geometry" />
        </mxCell>
        <mxCell id="TIkcXbPKKL6H0c5Kh5_0-51" value="" style="rounded=0;whiteSpace=wrap;html=1;fillColor=#d5e8d4;strokeColor=#82b366;" vertex="1" parent="1">
          <mxGeometry x="812" y="540" width="100" height="20" as="geometry" />
        </mxCell>
        <mxCell id="TIkcXbPKKL6H0c5Kh5_0-52" style="edgeStyle=orthogonalEdgeStyle;rounded=0;orthogonalLoop=1;jettySize=auto;html=1;entryX=0.229;entryY=-0.056;entryDx=0;entryDy=0;entryPerimeter=0;" edge="1" parent="1" source="TIkcXbPKKL6H0c5Kh5_0-50" target="TIkcXbPKKL6H0c5Kh5_0-48">
          <mxGeometry relative="1" as="geometry" />
        </mxCell>
        <mxCell id="TIkcXbPKKL6H0c5Kh5_0-53" style="edgeStyle=orthogonalEdgeStyle;rounded=0;orthogonalLoop=1;jettySize=auto;html=1;entryX=0.867;entryY=-0.011;entryDx=0;entryDy=0;entryPerimeter=0;" edge="1" parent="1" source="TIkcXbPKKL6H0c5Kh5_0-51" target="TIkcXbPKKL6H0c5Kh5_0-48">
          <mxGeometry relative="1" as="geometry" />
        </mxCell>
        <mxCell id="TIkcXbPKKL6H0c5Kh5_0-54" value="&lt;i&gt;Mul 1&lt;/i&gt;" style="text;html=1;align=right;verticalAlign=middle;whiteSpace=wrap;rounded=0;fontColor=#97D077;" vertex="1" parent="1">
          <mxGeometry x="636" y="545" width="60" height="10" as="geometry" />
        </mxCell>
        <mxCell id="TIkcXbPKKL6H0c5Kh5_0-55" style="edgeStyle=orthogonalEdgeStyle;rounded=0;orthogonalLoop=1;jettySize=auto;html=1;fillColor=#f8cecc;strokeColor=#b85450;" edge="1" parent="1" source="TIkcXbPKKL6H0c5Kh5_0-56">
          <mxGeometry relative="1" as="geometry">
            <mxPoint x="1097" y="670" as="targetPoint" />
          </mxGeometry>
        </mxCell>
        <mxCell id="TIkcXbPKKL6H0c5Kh5_0-56" value="Unidad&amp;nbsp;&lt;div&gt;División de Coma Flotante&lt;/div&gt;" style="rounded=0;whiteSpace=wrap;html=1;fillColor=#dae8fc;strokeColor=#6c8ebf;" vertex="1" parent="1">
          <mxGeometry x="1022" y="600" width="150" height="40" as="geometry" />
        </mxCell>
        <mxCell id="TIkcXbPKKL6H0c5Kh5_0-57" value="" style="rounded=0;whiteSpace=wrap;html=1;fillColor=#d5e8d4;strokeColor=#82b366;" vertex="1" parent="1">
          <mxGeometry x="992" y="540" width="210" height="20" as="geometry" />
        </mxCell>
        <mxCell id="TIkcXbPKKL6H0c5Kh5_0-58" value="" style="rounded=0;whiteSpace=wrap;html=1;fillColor=#d5e8d4;strokeColor=#82b366;" vertex="1" parent="1">
          <mxGeometry x="1012" y="540" width="90" height="20" as="geometry" />
        </mxCell>
        <mxCell id="TIkcXbPKKL6H0c5Kh5_0-59" value="" style="rounded=0;whiteSpace=wrap;html=1;fillColor=#d5e8d4;strokeColor=#82b366;" vertex="1" parent="1">
          <mxGeometry x="1102" y="540" width="100" height="20" as="geometry" />
        </mxCell>
        <mxCell id="TIkcXbPKKL6H0c5Kh5_0-60" style="edgeStyle=orthogonalEdgeStyle;rounded=0;orthogonalLoop=1;jettySize=auto;html=1;entryX=0.229;entryY=-0.056;entryDx=0;entryDy=0;entryPerimeter=0;" edge="1" parent="1" source="TIkcXbPKKL6H0c5Kh5_0-58" target="TIkcXbPKKL6H0c5Kh5_0-56">
          <mxGeometry relative="1" as="geometry" />
        </mxCell>
        <mxCell id="TIkcXbPKKL6H0c5Kh5_0-61" style="edgeStyle=orthogonalEdgeStyle;rounded=0;orthogonalLoop=1;jettySize=auto;html=1;entryX=0.867;entryY=-0.011;entryDx=0;entryDy=0;entryPerimeter=0;" edge="1" parent="1" source="TIkcXbPKKL6H0c5Kh5_0-59" target="TIkcXbPKKL6H0c5Kh5_0-56">
          <mxGeometry relative="1" as="geometry" />
        </mxCell>
        <mxCell id="TIkcXbPKKL6H0c5Kh5_0-62" value="&lt;i&gt;Div 1&lt;/i&gt;" style="text;html=1;align=right;verticalAlign=middle;whiteSpace=wrap;rounded=0;fontColor=#97D077;" vertex="1" parent="1">
          <mxGeometry x="926" y="545" width="60" height="10" as="geometry" />
        </mxCell>
        <mxCell id="TIkcXbPKKL6H0c5Kh5_0-71" style="edgeStyle=orthogonalEdgeStyle;rounded=0;orthogonalLoop=1;jettySize=auto;html=1;fillColor=#f8cecc;strokeColor=#b85450;" edge="1" parent="1" source="TIkcXbPKKL6H0c5Kh5_0-72">
          <mxGeometry relative="1" as="geometry">
            <mxPoint x="1387" y="670" as="targetPoint" />
          </mxGeometry>
        </mxCell>
        <mxCell id="TIkcXbPKKL6H0c5Kh5_0-72" value="Unidad&amp;nbsp;&lt;span style=&quot;background-color: initial;&quot;&gt;Enteros&lt;/span&gt;" style="rounded=0;whiteSpace=wrap;html=1;fillColor=#dae8fc;strokeColor=#6c8ebf;" vertex="1" parent="1">
          <mxGeometry x="1312" y="610" width="150" height="30" as="geometry" />
        </mxCell>
        <mxCell id="TIkcXbPKKL6H0c5Kh5_0-73" value="" style="rounded=0;whiteSpace=wrap;html=1;fillColor=#d5e8d4;strokeColor=#82b366;" vertex="1" parent="1">
          <mxGeometry x="1282" y="540" width="210" height="20" as="geometry" />
        </mxCell>
        <mxCell id="TIkcXbPKKL6H0c5Kh5_0-74" value="" style="rounded=0;whiteSpace=wrap;html=1;fillColor=#d5e8d4;strokeColor=#82b366;" vertex="1" parent="1">
          <mxGeometry x="1302" y="540" width="90" height="20" as="geometry" />
        </mxCell>
        <mxCell id="TIkcXbPKKL6H0c5Kh5_0-75" value="" style="rounded=0;whiteSpace=wrap;html=1;fillColor=#d5e8d4;strokeColor=#82b366;" vertex="1" parent="1">
          <mxGeometry x="1392" y="540" width="100" height="20" as="geometry" />
        </mxCell>
        <mxCell id="TIkcXbPKKL6H0c5Kh5_0-76" style="edgeStyle=orthogonalEdgeStyle;rounded=0;orthogonalLoop=1;jettySize=auto;html=1;entryX=0.229;entryY=-0.056;entryDx=0;entryDy=0;entryPerimeter=0;" edge="1" parent="1" source="TIkcXbPKKL6H0c5Kh5_0-74" target="TIkcXbPKKL6H0c5Kh5_0-72">
          <mxGeometry relative="1" as="geometry" />
        </mxCell>
        <mxCell id="TIkcXbPKKL6H0c5Kh5_0-77" style="edgeStyle=orthogonalEdgeStyle;rounded=0;orthogonalLoop=1;jettySize=auto;html=1;entryX=0.867;entryY=-0.011;entryDx=0;entryDy=0;entryPerimeter=0;" edge="1" parent="1" source="TIkcXbPKKL6H0c5Kh5_0-75" target="TIkcXbPKKL6H0c5Kh5_0-72">
          <mxGeometry relative="1" as="geometry" />
        </mxCell>
        <mxCell id="TIkcXbPKKL6H0c5Kh5_0-78" value="&lt;i&gt;Int 2&lt;/i&gt;" style="text;html=1;align=right;verticalAlign=middle;whiteSpace=wrap;rounded=0;fontColor=#97D077;" vertex="1" parent="1">
          <mxGeometry x="1216" y="545" width="60" height="10" as="geometry" />
        </mxCell>
        <mxCell id="TIkcXbPKKL6H0c5Kh5_0-79" value="" style="rounded=0;whiteSpace=wrap;html=1;fillColor=#d5e8d4;strokeColor=#82b366;" vertex="1" parent="1">
          <mxGeometry x="1282" y="520" width="210" height="20" as="geometry" />
        </mxCell>
        <mxCell id="TIkcXbPKKL6H0c5Kh5_0-80" value="" style="rounded=0;whiteSpace=wrap;html=1;fillColor=#d5e8d4;strokeColor=#82b366;" vertex="1" parent="1">
          <mxGeometry x="1302" y="520" width="90" height="20" as="geometry" />
        </mxCell>
        <mxCell id="TIkcXbPKKL6H0c5Kh5_0-81" value="" style="rounded=0;whiteSpace=wrap;html=1;fillColor=#d5e8d4;strokeColor=#82b366;" vertex="1" parent="1">
          <mxGeometry x="1392" y="520" width="100" height="20" as="geometry" />
        </mxCell>
        <mxCell id="TIkcXbPKKL6H0c5Kh5_0-82" value="&lt;i&gt;Int&amp;nbsp;&lt;/i&gt;&lt;i&gt;1&lt;/i&gt;" style="text;html=1;align=right;verticalAlign=middle;whiteSpace=wrap;rounded=0;fontColor=#97D077;" vertex="1" parent="1">
          <mxGeometry x="1216" y="525" width="60" height="10" as="geometry" />
        </mxCell>
        <mxCell id="TIkcXbPKKL6H0c5Kh5_0-83" value="" style="endArrow=classic;html=1;rounded=0;entryX=0.826;entryY=1.15;entryDx=0;entryDy=0;entryPerimeter=0;strokeColor=#EA6B66;" edge="1" parent="1" target="TIkcXbPKKL6H0c5Kh5_0-13">
          <mxGeometry width="50" height="50" relative="1" as="geometry">
            <mxPoint x="339" y="670" as="sourcePoint" />
            <mxPoint x="390" y="610" as="targetPoint" />
          </mxGeometry>
        </mxCell>
        <mxCell id="TIkcXbPKKL6H0c5Kh5_0-84" value="" style="endArrow=classic;html=1;rounded=0;strokeColor=#EA6B66;" edge="1" parent="1">
          <mxGeometry width="50" height="50" relative="1" as="geometry">
            <mxPoint x="616" y="667" as="sourcePoint" />
            <mxPoint x="616" y="560" as="targetPoint" />
          </mxGeometry>
        </mxCell>
        <mxCell id="TIkcXbPKKL6H0c5Kh5_0-85" value="" style="endArrow=classic;html=1;rounded=0;strokeColor=#EA6B66;" edge="1" parent="1">
          <mxGeometry width="50" height="50" relative="1" as="geometry">
            <mxPoint x="896" y="667" as="sourcePoint" />
            <mxPoint x="896" y="560" as="targetPoint" />
          </mxGeometry>
        </mxCell>
        <mxCell id="TIkcXbPKKL6H0c5Kh5_0-86" value="" style="endArrow=classic;html=1;rounded=0;strokeColor=#EA6B66;" edge="1" parent="1">
          <mxGeometry width="50" height="50" relative="1" as="geometry">
            <mxPoint x="1186" y="667" as="sourcePoint" />
            <mxPoint x="1186" y="560" as="targetPoint" />
          </mxGeometry>
        </mxCell>
        <mxCell id="TIkcXbPKKL6H0c5Kh5_0-87" value="" style="endArrow=classic;html=1;rounded=0;strokeColor=#EA6B66;" edge="1" parent="1">
          <mxGeometry width="50" height="50" relative="1" as="geometry">
            <mxPoint x="1476" y="667" as="sourcePoint" />
            <mxPoint x="1476" y="560" as="targetPoint" />
          </mxGeometry>
        </mxCell>
        <mxCell id="TIkcXbPKKL6H0c5Kh5_0-89" value="" style="rounded=0;whiteSpace=wrap;html=1;fillColor=#ffe6cc;strokeColor=#d79b00;" vertex="1" parent="1">
          <mxGeometry x="540" y="330" width="120" height="20" as="geometry" />
        </mxCell>
        <mxCell id="TIkcXbPKKL6H0c5Kh5_0-90" value="" style="rounded=0;whiteSpace=wrap;html=1;fillColor=#ffe6cc;strokeColor=#d79b00;" vertex="1" parent="1">
          <mxGeometry x="540" y="350" width="120" height="20" as="geometry" />
        </mxCell>
        <mxCell id="TIkcXbPKKL6H0c5Kh5_0-91" value="" style="rounded=0;whiteSpace=wrap;html=1;fillColor=#ffe6cc;strokeColor=#d79b00;" vertex="1" parent="1">
          <mxGeometry x="540" y="370" width="120" height="20" as="geometry" />
        </mxCell>
        <mxCell id="TIkcXbPKKL6H0c5Kh5_0-92" value="" style="rounded=0;whiteSpace=wrap;html=1;fillColor=#ffe6cc;strokeColor=#d79b00;" vertex="1" parent="1">
          <mxGeometry x="540" y="390" width="120" height="20" as="geometry" />
        </mxCell>
        <mxCell id="TIkcXbPKKL6H0c5Kh5_0-93" value="" style="rounded=0;whiteSpace=wrap;html=1;fillColor=#ffe6cc;strokeColor=#d79b00;" vertex="1" parent="1">
          <mxGeometry x="540" y="410" width="120" height="20" as="geometry" />
        </mxCell>
        <mxCell id="TIkcXbPKKL6H0c5Kh5_0-94" value="Banco de Registros" style="text;html=1;align=center;verticalAlign=middle;whiteSpace=wrap;rounded=0;fontStyle=1;fillColor=none;strokeColor=none;fontColor=#FFB570;" vertex="1" parent="1">
          <mxGeometry x="540" y="310" width="120" height="10" as="geometry" />
        </mxCell>
        <mxCell id="TIkcXbPKKL6H0c5Kh5_0-95" value="" style="rounded=0;whiteSpace=wrap;html=1;fillColor=#ffe6cc;strokeColor=#d79b00;" vertex="1" parent="1">
          <mxGeometry x="540" y="430" width="120" height="20" as="geometry" />
        </mxCell>
        <mxCell id="TIkcXbPKKL6H0c5Kh5_0-97" value="1" style="text;html=1;align=center;verticalAlign=middle;whiteSpace=wrap;rounded=0;fontColor=#A680B8;" vertex="1" parent="1">
          <mxGeometry x="220" y="430" width="20" height="20" as="geometry" />
        </mxCell>
        <mxCell id="TIkcXbPKKL6H0c5Kh5_0-98" value="2" style="text;html=1;align=center;verticalAlign=middle;whiteSpace=wrap;rounded=0;fontColor=#A680B8;" vertex="1" parent="1">
          <mxGeometry x="220" y="410" width="20" height="20" as="geometry" />
        </mxCell>
        <mxCell id="TIkcXbPKKL6H0c5Kh5_0-99" value="3" style="text;html=1;align=center;verticalAlign=middle;whiteSpace=wrap;rounded=0;fontColor=#A680B8;" vertex="1" parent="1">
          <mxGeometry x="220" y="390" width="20" height="20" as="geometry" />
        </mxCell>
        <mxCell id="TIkcXbPKKL6H0c5Kh5_0-100" value="4" style="text;html=1;align=center;verticalAlign=middle;whiteSpace=wrap;rounded=0;fontColor=#A680B8;" vertex="1" parent="1">
          <mxGeometry x="220" y="370" width="20" height="20" as="geometry" />
        </mxCell>
        <mxCell id="TIkcXbPKKL6H0c5Kh5_0-101" value="5" style="text;html=1;align=center;verticalAlign=middle;whiteSpace=wrap;rounded=0;fontColor=#A680B8;" vertex="1" parent="1">
          <mxGeometry x="220" y="350" width="20" height="20" as="geometry" />
        </mxCell>
        <mxCell id="TIkcXbPKKL6H0c5Kh5_0-102" value="1" style="text;html=1;align=center;verticalAlign=middle;whiteSpace=wrap;rounded=0;fontColor=#FFB570;" vertex="1" parent="1">
          <mxGeometry x="660" y="430" width="20" height="20" as="geometry" />
        </mxCell>
        <mxCell id="TIkcXbPKKL6H0c5Kh5_0-103" value="2" style="text;html=1;align=center;verticalAlign=middle;whiteSpace=wrap;rounded=0;fontColor=#FFB570;" vertex="1" parent="1">
          <mxGeometry x="660" y="410" width="20" height="20" as="geometry" />
        </mxCell>
        <mxCell id="TIkcXbPKKL6H0c5Kh5_0-104" value="3" style="text;html=1;align=center;verticalAlign=middle;whiteSpace=wrap;rounded=0;fontColor=#FFB570;" vertex="1" parent="1">
          <mxGeometry x="660" y="390" width="20" height="20" as="geometry" />
        </mxCell>
        <mxCell id="TIkcXbPKKL6H0c5Kh5_0-105" value="4" style="text;html=1;align=center;verticalAlign=middle;whiteSpace=wrap;rounded=0;fontColor=#FFB570;" vertex="1" parent="1">
          <mxGeometry x="660" y="370" width="20" height="20" as="geometry" />
        </mxCell>
        <mxCell id="TIkcXbPKKL6H0c5Kh5_0-106" value="5" style="text;html=1;align=center;verticalAlign=middle;whiteSpace=wrap;rounded=0;fontColor=#FFB570;" vertex="1" parent="1">
          <mxGeometry x="660" y="350" width="20" height="20" as="geometry" />
        </mxCell>
        <mxCell id="TIkcXbPKKL6H0c5Kh5_0-107" value="6" style="text;html=1;align=center;verticalAlign=middle;whiteSpace=wrap;rounded=0;fontColor=#FFB570;" vertex="1" parent="1">
          <mxGeometry x="660" y="330" width="20" height="20" as="geometry" />
        </mxCell>
        <mxCell id="TIkcXbPKKL6H0c5Kh5_0-108" value="" style="endArrow=none;html=1;rounded=0;entryX=0.25;entryY=0;entryDx=0;entryDy=0;exitX=0.25;exitY=1;exitDx=0;exitDy=0;fontColor=none;noLabel=1;strokeColor=#d79b00;" edge="1" parent="1" source="TIkcXbPKKL6H0c5Kh5_0-95" target="TIkcXbPKKL6H0c5Kh5_0-89">
          <mxGeometry width="50" height="50" relative="1" as="geometry">
            <mxPoint x="550" y="400" as="sourcePoint" />
            <mxPoint x="600" y="350" as="targetPoint" />
          </mxGeometry>
        </mxCell>
      </root>
    </mxGraphModel>
  </diagram>
</mxfile>
